<?xml version="1.0" encoding="UTF-8" standalone="no"?>
<!DOCTYPE svg PUBLIC "-//W3C//DTD SVG 1.1//EN" "http://www.w3.org/Graphics/SVG/1.1/DTD/svg11.dtd">
<svg width="100%" height="100%" viewBox="0 0 512 512" version="1.1" xmlns="http://www.w3.org/2000/svg" style="fill-rule:evenodd;clip-rule:evenodd;stroke-linejoin:round;stroke-miterlimit:2;">
    <path id="path2" d="M64,96L64,160L448,160L448,96L64,96ZM64,32L448,32C483.3,32 512,60.7 512,96L512,160C512,195.3 483.3,224 448,224L64,224C28.7,224 0,195.3 0,160L0,96C0,60.7 28.7,32 64,32ZM224,352C224,316.7 252.7,288 288,288L448,288C483.3,288 512,316.7 512,352L512,416C512,451.3 483.3,480 448,480L144,480C99.8,480 64,444.2 64,400L64,384L25.9,384C4.5,384 -6.2,358.1 8.9,343L79,273C88.4,263.6 103.6,263.6 112.9,273L183,343C198.1,358.1 187.4,384 166,384L127.9,384L127.9,400C127.9,408.8 135.1,416 143.9,416L223.9,416L223.9,352L224,352Z" style="fill:white;fill-rule:nonzero;"/>
</svg>
