<?xml version="1.0" encoding="UTF-8" standalone="no"?>
<!DOCTYPE svg PUBLIC "-//W3C//DTD SVG 1.1//EN" "http://www.w3.org/Graphics/SVG/1.1/DTD/svg11.dtd">
<svg width="100%" height="100%" viewBox="0 0 512 512" version="1.1" xmlns="http://www.w3.org/2000/svg" style="fill-rule:evenodd;clip-rule:evenodd;stroke-linejoin:round;stroke-miterlimit:2;">
    <path id="path2" d="M448,416L448,352L64,352L64,416L448,416ZM448,480L64,480C28.7,480 0,451.3 0,416L0,352C0,316.7 28.7,288 64,288L448,288C483.3,288 512,316.7 512,352L512,416C512,451.3 483.3,480 448,480ZM288,160C288,195.3 259.3,224 224,224L64,224C28.7,224 0,195.3 0,160L0,96C0,60.7 28.7,32 64,32L368,32C412.2,32 448,67.8 448,112L448,128L486.1,128C507.5,128 518.2,153.9 503.1,169L433,239C423.6,248.4 408.4,248.4 399.1,239L329,169C313.9,153.9 324.6,128 346,128L384.1,128L384.1,112C384.1,103.2 376.9,96 368.1,96L288.1,96L288.1,160L288,160Z" style="fill:white;fill-rule:nonzero;"/>
</svg>
