<?xml version="1.0" encoding="UTF-8" standalone="no"?>
<!DOCTYPE svg PUBLIC "-//W3C//DTD SVG 1.1//EN" "http://www.w3.org/Graphics/SVG/1.1/DTD/svg11.dtd">
<svg width="100%" height="100%" viewBox="0 0 512 512" version="1.1" xmlns="http://www.w3.org/2000/svg" xmlns:xlink="http://www.w3.org/1999/xlink" xml:space="preserve" xmlns:serif="http://www.serif.com/" style="fill-rule:evenodd;clip-rule:evenodd;stroke-linejoin:round;stroke-miterlimit:2;">
    <path d="M448,80C456.8,80 464,87.2 464,96L464,415.8L459,409.3L323,233.3C318.5,227.4 311.4,224 304,224C296.6,224 289.6,227.4 285,233.3L202,340.7L171.5,298C167,291.7 159.8,288 152,288C144.2,288 137,291.7 132.5,298.1L52.5,410.1L48,416.3L48,96C48,87.2 55.2,80 64,80L448,80ZM64,32C28.7,32 0,60.7 0,96L0,416C0,451.3 28.7,480 64,480L448,480C483.3,480 512,451.3 512,416L512,96C512,60.7 483.3,32 448,32L64,32ZM144,224C170.332,224 192,202.332 192,176C192,149.668 170.332,128 144,128C117.668,128 96,149.668 96,176C96,202.332 117.668,224 144,224Z" style="fill:white;fill-rule:nonzero;"/>
</svg>
