<?xml version="1.0" encoding="UTF-8" standalone="no"?>
<!DOCTYPE svg PUBLIC "-//W3C//DTD SVG 1.1//EN" "http://www.w3.org/Graphics/SVG/1.1/DTD/svg11.dtd">
<svg width="100%" height="100%" viewBox="0 0 24 24" version="1.1" xmlns="http://www.w3.org/2000/svg" xmlns:xlink="http://www.w3.org/1999/xlink" xml:space="preserve" xmlns:serif="http://www.serif.com/" style="fill-rule:evenodd;clip-rule:evenodd;stroke-linejoin:round;stroke-miterlimit:2;">
    <path d="M16.47,5.47C16.177,5.763 16.177,6.237 16.47,6.53L17.189,7.25L13.377,7.25C12.706,7.25 12.094,7.633 11.802,8.237L11.591,8.671C11.538,8.782 11.538,8.91 11.591,9.02L12.16,10.195C12.233,10.345 12.447,10.345 12.52,10.195L13.152,8.891C13.194,8.805 13.281,8.75 13.377,8.75L17.189,8.75L16.47,9.47C16.177,9.763 16.177,10.237 16.47,10.53C16.763,10.823 17.237,10.823 17.53,10.53L19.53,8.53C19.823,8.237 19.823,7.763 19.53,7.47L17.53,5.47C17.237,5.177 16.763,5.177 16.47,5.47Z" style="fill:white;fill-rule:nonzero;"/>
    <path d="M10.034,15.329C10.087,15.218 10.087,15.09 10.034,14.98L9.465,13.805C9.392,13.655 9.178,13.655 9.105,13.805L8.473,15.109C8.431,15.195 8.344,15.25 8.248,15.25L5,15.25C4.586,15.25 4.25,15.586 4.25,16C4.25,16.414 4.586,16.75 5,16.75L8.248,16.75C8.919,16.75 9.531,16.367 9.823,15.763L10.034,15.329Z" style="fill:white;fill-rule:nonzero;"/>
    <path d="M16.47,18.53C16.177,18.237 16.177,17.763 16.47,17.47L17.189,16.75L13.377,16.75C12.706,16.75 12.094,16.367 11.802,15.763L8.473,8.891C8.431,8.805 8.344,8.75 8.248,8.75L5,8.75C4.586,8.75 4.25,8.414 4.25,8C4.25,7.586 4.586,7.25 5,7.25L8.248,7.25C8.919,7.25 9.531,7.633 9.823,8.237L13.152,15.109C13.194,15.195 13.281,15.25 13.377,15.25L17.189,15.25L16.47,14.53C16.177,14.237 16.177,13.763 16.47,13.47C16.763,13.177 17.237,13.177 17.53,13.47L19.53,15.47C19.823,15.763 19.823,16.237 19.53,16.53L17.53,18.53C17.237,18.823 16.763,18.823 16.47,18.53Z" style="fill:white;fill-rule:nonzero;"/>
</svg>
