<svg xmlns="http://www.w3.org/2000/svg" xml:space="preserve" style="fill-rule:evenodd;clip-rule:evenodd;stroke-linejoin:round;stroke-miterlimit:2" viewBox="0 0 1024 1024"><path d="M0 0h1024v1024H0z" style="fill:none"/><clipPath id="a"><path d="M0 0h1024v1024H0z"/></clipPath><g clip-path="url(#a)"><circle cx="512" cy="512.001" r="512" style="fill:#ff2e2e"/><path d="M759.487 759.487c21.465-21.464 19.881-57.901-3.535-81.317L345.831 268.049c-23.417-23.417-59.854-25.001-81.318-3.536-21.465 21.464-19.881 57.901 3.536 81.318L678.17 755.952c23.416 23.416 59.853 25 81.317 3.535Z" style="fill:#fff"/><path d="M264.513 759.487c21.464 21.465 57.901 19.881 81.317-3.535l410.121-410.121c23.417-23.417 25.001-59.854 3.536-81.318-21.464-21.465-57.901-19.881-81.318 3.536L268.048 678.17c-23.416 23.416-25 59.853-3.535 81.317Z" style="fill:#fff"/></g></svg>